HIERARCHY
ROOT Hips
{
	OFFSET 0.000000 0.000000 0.000000
	CHANNELS 6 Xposition Yposition Zposition Zrotation Yrotation Xrotation 
	JOINT LHipJoint
	{
		OFFSET 0.000000 0.000000 0.000000
		CHANNELS 3 Zrotation Yrotation Xrotation
		JOINT LeftUpLeg
		{
			OFFSET 1.363060 -1.794630 0.839290
			CHANNELS 3 Zrotation Yrotation Xrotation
			JOINT LeftLeg
			{
				OFFSET 2.448110 -6.726130 0.000000
				CHANNELS 3 Zrotation Yrotation Xrotation
				JOINT LeftFoot
				{
					OFFSET 2.562200 -7.039590 0.000000
					CHANNELS 3 Zrotation Yrotation Xrotation
					JOINT LeftToeBase
					{
						OFFSET 0.157640 -0.433110 2.322550
						CHANNELS 3 Zrotation Yrotation Xrotation
						End Site
						{
							OFFSET 0.000000 0.000000 0.000000
						}
					}
				}
			}
		}
	}
	JOINT RHipJoint
	{
		OFFSET 0.000000 0.000000 0.000000
		CHANNELS 3 Zrotation Yrotation Xrotation
		JOINT RightUpLeg
		{
			OFFSET -1.305520 -1.794630 0.839290
			CHANNELS 3 Zrotation Yrotation Xrotation
			JOINT RightLeg
			{
				OFFSET -2.542530 -6.985550 0.000000
				CHANNELS 3 Zrotation Yrotation Xrotation
				JOINT RightFoot
				{
					OFFSET -2.568260 -7.056230 0.000000
					CHANNELS 3 Zrotation Yrotation Xrotation
					JOINT RightToeBase
					{
						OFFSET -0.164730 -0.452590 2.363150
						CHANNELS 3 Zrotation Yrotation Xrotation
						End Site
						{
							OFFSET 0.000000 0.000000 0.000000
						}
					}
				}
			}
		}
	}
	JOINT LowerBack
	{
		OFFSET 0.000000 0.000000 0.000000
		CHANNELS 3 Zrotation Yrotation Xrotation
		JOINT Spine
		{
			OFFSET 0.028270 2.035590 -0.193380
			CHANNELS 3 Zrotation Yrotation Xrotation
			JOINT Spine1
			{
				OFFSET 0.056720 2.048850 -0.042750
				CHANNELS 3 Zrotation Yrotation Xrotation
				JOINT Neck
				{
					OFFSET 0.000000 0.000000 0.000000
					CHANNELS 3 Zrotation Yrotation Xrotation
					JOINT Neck1
					{
						OFFSET -0.054170 1.746240 0.172020
						CHANNELS 3 Zrotation Yrotation Xrotation
						JOINT Head
						{
							OFFSET 0.104070 1.761360 -0.123970
							CHANNELS 3 Zrotation Yrotation Xrotation
							End Site
							{
								OFFSET 0.000000 0.000000 0.000000
							}
						}
					}
				}
				JOINT LeftShoulder
				{
					OFFSET 0.000000 0.000000 0.000000
					CHANNELS 3 Zrotation Yrotation Xrotation
					JOINT LeftArm
					{
						OFFSET 3.362410 1.200890 -0.311210
						CHANNELS 3 Zrotation Yrotation Xrotation
						JOINT LeftForeArm
						{
							OFFSET 4.983000 -0.000000 -0.000000
							CHANNELS 3 Zrotation Yrotation Xrotation
							JOINT LeftHand
							{
								OFFSET 3.483560 -0.000000 -0.000000
								CHANNELS 3 Zrotation Yrotation Xrotation
								JOINT LeftFingerBase
								{
									OFFSET 0.000000 0.000000 0.000000
									CHANNELS 3 Zrotation Yrotation Xrotation
									JOINT LeftHandIndex1
									{
										OFFSET 0.715260 -0.000000 -0.000000
										CHANNELS 3 Zrotation Yrotation Xrotation
										End Site
										{
											OFFSET 0.000000 0.000000 0.000000
										}
									}
								}
								JOINT LThumb
								{
									OFFSET 0.000000 0.000000 0.000000
									CHANNELS 3 Zrotation Yrotation Xrotation
									End Site
									{
										OFFSET 0.000000 0.000000 0.000000
									}
								}
							}
						}
					}
				}
				JOINT RightShoulder
				{
					OFFSET 0.000000 0.000000 0.000000
					CHANNELS 3 Zrotation Yrotation Xrotation
					JOINT RightArm
					{
						OFFSET -3.136600 1.374050 -0.404650
						CHANNELS 3 Zrotation Yrotation Xrotation
						JOINT RightForeArm
						{
							OFFSET -5.241900 -0.000000 -0.000000
							CHANNELS 3 Zrotation Yrotation Xrotation
							JOINT RightHand
							{
								OFFSET -3.444170 -0.000000 -0.000000
								CHANNELS 3 Zrotation Yrotation Xrotation
								JOINT RightFingerBase
								{
									OFFSET 0.000000 0.000000 0.000000
									CHANNELS 3 Zrotation Yrotation Xrotation
									JOINT RightHandIndex1
									{
										OFFSET -0.622530 -0.000000 -0.000000
										CHANNELS 3 Zrotation Yrotation Xrotation
										End Site
										{
											OFFSET 0.000000 0.000000 0.000000
										}
									}
								}
								JOINT RThumb
								{
									OFFSET 0.000000 0.000000 0.000000
									CHANNELS 3 Zrotation Yrotation Xrotation
									End Site
									{
										OFFSET 0.000000 0.000000 0.000000
									}
								}
							}
						}
					}
				}
			}
		}
	}
}
MOTION
Frames: 9
Frame Time: 0.008333
15.868711 18.826130 19.784644 -179.471913 -3.838587 -149.278700 35.737276 10.153381 3.340332 -59.110049 -29.987719 -17.626718 6.174728 5.125515 14.070414 0.698945 -13.696559 -46.064458 3.440800 -11.376600 -33.560800 -38.775363 -10.564803 3.176326 66.821747 28.094120 -13.585206 -6.104255 -3.687860 9.916786 -2.844180 10.253600 -47.835582 -1.422800 7.543000 -21.334300 -5.705181 -2.438498 -34.792188 11.609700 -0.653365 -0.040286 -3.120270 -1.453903 21.896177 -10.693013 1.046238 1.308122 7.054983 0.069897 -9.576429 0.734800 -0.656000 1.776700 16.443861 -4.068040 -0.449163 -111.354464 -6.199305 14.669100 18.993825 -17.579126 -1.920287 0.672243 -0.209821 6.480378 20.705977 -11.615109 -4.163000 -7.125000 0.000000 0.000000 -4.993100 17.762100 3.244300 -12.885627 0.554414 -0.427272 105.466242 1.381236 0.933719 -23.144299 31.380609 -4.118712 -0.514883 -4.442856 -1.046149 -12.799209 -54.894560 9.507100 7.125000 0.000000 0.000000 57.666000 -74.891600 -43.699900 
15.870720 18.825843 19.787322 -179.390615 -3.862730 -149.191697 35.757690 10.190023 3.310887 -59.001002 -30.006780 -17.739218 6.195165 5.169124 14.128226 0.679914 -13.551161 -45.754701 2.612300 -10.039300 -29.104100 -38.746722 -10.531387 3.186549 66.834714 28.275276 -13.670800 -6.080002 -3.741220 9.965465 -2.890767 9.947050 -47.575425 -1.511100 7.763400 -21.997700 -5.738771 -2.497353 -34.696436 11.855146 -0.611571 -0.415029 -3.188342 -1.456356 22.004062 -10.647098 1.080790 1.452783 6.946562 0.084934 -9.671885 0.719800 -0.649600 1.751900 16.412773 -4.114961 -0.422782 -111.334190 -6.156409 14.845502 19.030645 -17.620566 -1.934302 0.673817 -0.208759 6.279951 20.771759 -11.643657 -4.187400 -7.125000 0.000000 0.000000 -4.948300 17.727700 3.218700 -12.925991 0.552887 -0.402733 105.477057 1.359710 0.985392 -23.172762 31.401636 -4.125190 -0.522960 -4.455716 -1.085049 -13.045533 -55.238854 9.737500 7.125000 0.000000 0.000000 58.661400 -75.128400 -44.803900 
15.872250 18.824600 19.789140 -179.381966 -3.851742 -149.148955 35.749967 10.184049 3.328775 -58.940194 -30.100964 -17.795663 6.196093 5.175847 14.113953 0.730487 -13.457437 -45.800165 2.609600 -10.034600 -29.088800 -38.720451 -10.548426 3.211438 66.777797 28.379797 -13.819056 -6.071373 -3.841842 10.201399 -2.796023 9.842600 -47.093586 -1.557300 7.875800 -22.337300 -5.699144 -2.474724 -34.704730 11.793306 -0.606310 -0.463338 -3.184214 -1.449800 22.016862 -10.601604 1.081940 1.422517 6.906150 0.090967 -9.674030 0.710500 -0.644900 1.756500 16.416505 -4.109403 -0.419984 -111.270641 -6.176278 15.048189 19.053011 -17.634765 -1.941488 0.679366 -0.206864 6.031350 20.906393 -11.614063 -4.206100 -7.125000 0.000000 0.000000 -4.856700 17.748200 3.156400 -12.912565 0.566700 -0.389191 105.462557 1.279455 1.264395 -23.287973 31.529357 -4.169178 -0.501071 -4.451637 -1.440072 -13.127497 -55.173636 9.790000 7.125000 0.000000 0.000000 58.414900 -75.133200 -44.595000 
15.872729 18.823452 19.789044 -179.327434 -3.810600 -149.235956 35.770527 10.197985 3.406256 -58.922454 -30.112034 -17.761859 6.191028 5.145574 14.089898 0.737489 -13.611217 -46.121716 3.408200 -11.328300 -33.395100 -38.688158 -10.598367 3.184612 66.837099 28.134439 -13.800214 -6.082271 -3.763034 10.231882 -2.663662 10.660804 -47.819298 -1.252300 7.094700 -19.996200 -5.750289 -2.525408 -34.870621 12.050839 -0.619015 -0.051874 -3.248493 -1.421727 21.964104 -10.671279 1.054086 1.398043 7.009771 0.054264 -9.784290 0.725500 -0.673400 1.742300 16.416399 -4.084482 -0.455445 -111.292751 -6.249503 15.199260 19.079242 -17.724131 -1.956425 0.683374 -0.202217 5.844390 21.065357 -11.402302 -4.165600 -7.125000 0.000000 0.000000 -4.742400 17.956200 3.059900 -12.953226 0.519129 -0.413966 105.425482 1.212065 1.526059 -23.417526 31.695391 -4.224131 -0.471036 -4.445317 -1.758305 -13.026827 -55.003041 9.692700 7.125000 0.000000 0.000000 57.913200 -75.025300 -44.050200 
15.873111 18.822687 19.790575 -179.387643 -3.794707 -149.253150 35.728173 10.204945 3.418039 -58.968656 -30.080340 -17.778295 6.190696 5.179792 14.153209 0.687976 -13.558065 -45.809534 2.672400 -10.144900 -29.447200 -38.679649 -10.680069 3.146332 66.811057 27.907832 -13.794740 -6.107078 -3.751093 10.237318 -2.518787 10.878083 -47.561354 -1.447400 7.605200 -21.521300 -5.761272 -2.458248 -34.915425 11.830886 -0.588162 -0.092915 -3.144533 -1.416022 22.064222 -10.702953 1.056287 1.597562 7.273625 0.035138 -9.877793 0.755200 -0.697600 1.711100 16.453659 -4.113537 -0.452991 -111.283708 -6.261007 15.319056 19.141772 -17.810017 -1.977054 0.682659 -0.195562 5.715203 21.024590 -11.293165 -4.119100 -7.125000 0.000000 0.000000 -4.767400 18.069800 3.064200 -12.909717 0.537024 -0.415771 105.431093 1.175549 1.566839 -23.468594 31.745998 -4.247398 -0.464813 -4.442607 -1.808836 -13.030386 -54.980235 9.694900 7.125000 0.000000 0.000000 57.838200 -75.018700 -43.978700 
15.873876 18.822496 19.794209 -179.465512 -3.809548 -149.174816 35.710577 10.224125 3.410944 -59.014051 -30.139599 -17.876205 6.172040 5.207450 14.218075 0.683457 -13.558548 -45.807507 2.771100 -10.314900 -30.002700 -38.664060 -10.705612 3.129923 66.688367 27.944276 -13.904029 -6.129259 -3.798966 10.301018 -2.467535 10.713267 -47.150031 -1.566000 7.896700 -22.400600 -5.859046 -2.503520 -34.840273 11.841819 -0.581698 -0.461195 -3.106806 -1.448369 22.192909 -10.750290 1.096453 1.781135 7.298158 0.063464 -9.834988 0.768300 -0.681700 1.697200 16.447089 -4.165054 -0.421289 -111.311482 -6.212361 15.315719 19.197913 -17.885838 -1.995106 0.675224 -0.192593 5.672996 20.811013 -11.341366 -4.091500 -7.125000 0.000000 0.000000 -4.913100 18.034600 3.162400 -12.912207 0.566424 -0.387267 105.394699 1.156073 1.622555 -23.470771 31.716629 -4.245882 -0.465658 -4.443194 -1.804837 -13.058608 -54.947098 9.712200 7.125000 0.000000 0.000000 57.703000 -75.014200 -43.857500 
15.874355 18.822878 19.796601 -179.448594 -3.869451 -149.210695 35.731175 10.214326 3.432674 -58.979244 -30.207440 -17.904410 6.162169 5.197200 14.250973 0.675164 -13.714368 -46.094327 3.562900 -11.554900 -34.174900 -38.688140 -10.685321 3.106465 66.753476 27.893298 -13.798720 -6.128766 -3.704412 10.125308 -2.573561 10.921596 -47.838146 -1.217200 6.998300 -19.710300 -5.866083 -2.526909 -34.843075 11.931002 -0.590183 -0.409771 -3.134529 -1.449438 22.168293 -10.737669 1.103100 1.762294 7.266647 0.071424 -9.820737 0.763500 -0.675500 1.699300 16.436049 -4.161730 -0.418116 -111.325948 -6.188993 15.378148 19.251646 -17.986607 -2.015995 0.677743 -0.199591 5.653824 21.069454 -11.457004 -4.187500 -7.125000 0.000000 0.000000 -4.736400 17.898100 3.062100 -12.927369 0.550503 -0.396821 105.410927 1.217280 1.529692 -23.434944 31.686404 -4.230204 -0.475232 -4.449553 -1.779725 -13.189234 -55.069199 9.825000 7.125000 0.000000 0.000000 58.026900 -75.113300 -44.238700 
15.875502 18.823452 19.799661 -179.492970 -3.911343 -149.282712 35.707686 10.187558 3.426620 -58.979570 -30.209936 -17.888142 6.168723 5.228255 14.322045 0.609075 -13.685610 -45.767290 2.609300 -10.033900 -29.086700 -38.710998 -10.670522 3.115655 66.745476 27.913838 -13.717607 -6.130510 -3.719902 10.118555 -2.624595 10.691526 -47.668678 -1.356800 7.373400 -20.826500 -5.798287 -2.474203 -34.871313 11.717568 -0.615734 -0.273819 -3.093093 -1.451419 22.149000 -10.751051 1.110254 1.810393 7.380439 0.074991 -9.828316 0.774700 -0.678600 1.691200 16.460907 -4.153974 -0.422475 -111.332548 -6.188530 15.394626 19.302945 -18.078316 -2.034794 0.686444 -0.213118 5.683695 21.571502 -11.706806 -4.386600 -7.125000 0.000000 0.000000 -4.397900 17.602700 2.870500 -12.889611 0.547691 -0.419333 105.456330 1.332797 1.410435 -23.377526 31.637475 -4.210239 -0.482466 -4.446324 -1.655853 -13.127593 -55.019050 9.771600 7.125000 0.000000 0.000000 57.898700 -75.069200 -44.082700 
15.878563 18.824026 19.804540 -179.506080 -3.919029 -149.186877 35.747597 10.229317 3.405633 -58.986176 -30.271323 -17.991890 6.156786 5.254382 14.379018 0.591442 -13.691059 -45.732799 2.655800 -10.115900 -29.352800 -38.665121 -10.578160 3.184937 66.558360 28.347341 -13.938150 -6.127377 -3.842123 10.318693 -2.709961 10.185943 -47.352979 -1.406300 7.500900 -21.208200 -6.110316 -2.672624 -34.821645 12.280701 -0.582110 -0.515431 -3.157031 -1.479530 22.198577 -10.941851 1.079142 1.880996 7.608789 0.033223 -9.658477 0.819700 -0.696900 1.700600 16.419731 -4.202166 -0.398197 -111.436661 -6.190273 15.444226 19.323356 -18.140505 -2.047215 0.679896 -0.220496 5.681093 21.573693 -11.895938 -4.455600 -7.125000 0.000000 0.000000 -4.397700 17.410300 2.888900 -12.966523 0.525776 -0.396301 105.411053 1.371276 1.338371 -23.354828 31.607389 -4.202888 -0.480587 -4.447879 -1.526145 -12.932534 -54.914171 9.612600 7.125000 0.000000 0.000000 57.640900 -74.950000 -43.738300 
